<?xml version="1.0" standalone="no"?><!DOCTYPE svg PUBLIC "-//W3C//DTD SVG 1.1//EN" "http://www.w3.org/Graphics/SVG/1.1/DTD/svg11.dtd"><svg t="1710504454745" class="icon" viewBox="0 0 1024 1024" version="1.1" xmlns="http://www.w3.org/2000/svg" p-id="19886" xmlns:xlink="http://www.w3.org/1999/xlink" width="200" height="200"><path d="M531.48672 559.345664l-14.405632-355.331072a0.328704 0.328704 0 0 0-0.32768-0.315392h-54.422528a0.328704 0.328704 0 0 0-0.328704 0.315392L445.67552 606.742528l-0.508928 1.040384a0.658432 0.658432 0 0 0 0.3072 0.883712l0.120832 0.05632-0.068608 1.6896a0.657408 0.657408 0 0 0 0.658432 0.684032h4.385792l267.536384 127.63136a0.328704 0.328704 0 0 0 0.427008-0.13312l21.715968-37.612544a0.328704 0.328704 0 0 0-0.100352-0.437248L531.48672 559.345664zM1024 518.321152C1024 794.775552 794.775552 1024 505.678848 1024 229.224448 1024 0 794.775552 0 518.321152 0 229.224448 229.224448 0 505.678848 0 794.775552 0 1024 229.224448 1024 518.321152z" fill="#10AEFF" p-id="19887"></path></svg>